<mxfile host="Electron" agent="Mozilla/5.0 (Macintosh; Intel Mac OS X 10_15_7) AppleWebKit/537.36 (KHTML, like Gecko) draw.io/24.7.8 Chrome/128.0.6613.36 Electron/32.0.1 Safari/537.36" version="24.7.8">
  <diagram name="Pagina-1" id="1lT8yuxHTUthxHgMNPtq">
    <mxGraphModel dx="700" dy="442" grid="1" gridSize="10" guides="1" tooltips="1" connect="1" arrows="1" fold="1" page="1" pageScale="1" pageWidth="827" pageHeight="1169" math="0" shadow="0">
      <root>
        <mxCell id="0" />
        <mxCell id="1" parent="0" />
        <mxCell id="P4gy2zztITv2OOE34vSl-2" value="" style="shape=arrow;endArrow=classic;html=1;rounded=0;fillColor=#000000;shadow=1;strokeColor=none;" parent="1" source="X8oTq-pb9E9ul9ol5JQp-45" edge="1">
          <mxGeometry width="50" height="50" relative="1" as="geometry">
            <mxPoint x="900" y="510" as="sourcePoint" />
            <mxPoint x="1080" y="460" as="targetPoint" />
          </mxGeometry>
        </mxCell>
        <mxCell id="P4gy2zztITv2OOE34vSl-1" value="" style="shape=arrow;endArrow=classic;html=1;rounded=0;fillColor=#000000;shadow=1;strokeColor=none;" parent="1" target="X8oTq-pb9E9ul9ol5JQp-45" edge="1">
          <mxGeometry width="50" height="50" relative="1" as="geometry">
            <mxPoint x="40" y="460" as="sourcePoint" />
            <mxPoint x="750" y="440" as="targetPoint" />
          </mxGeometry>
        </mxCell>
        <mxCell id="X8oTq-pb9E9ul9ol5JQp-41" value="" style="ellipse;whiteSpace=wrap;html=1;aspect=fixed;fillColor=#D62828;strokeColor=#000000;shadow=1;" parent="1" vertex="1">
          <mxGeometry x="120" y="440" width="40" height="40" as="geometry" />
        </mxCell>
        <mxCell id="X8oTq-pb9E9ul9ol5JQp-42" value="" style="ellipse;whiteSpace=wrap;html=1;aspect=fixed;fillColor=#D62828;strokeColor=#000000;shadow=1;" parent="1" vertex="1">
          <mxGeometry x="200" y="440" width="40" height="40" as="geometry" />
        </mxCell>
        <mxCell id="X8oTq-pb9E9ul9ol5JQp-43" value="" style="rounded=1;whiteSpace=wrap;html=1;fillColor=#FCBF49;strokeColor=#000000;shadow=1;" parent="1" vertex="1">
          <mxGeometry x="280" y="440" width="40" height="40" as="geometry" />
        </mxCell>
        <mxCell id="X8oTq-pb9E9ul9ol5JQp-45" value="" style="shape=cylinder3;whiteSpace=wrap;html=1;boundedLbl=1;backgroundOutline=1;size=15;rotation=90;fillColor=#EAE2B7;strokeColor=#000000;shadow=1;" parent="1" vertex="1">
          <mxGeometry x="540" y="340" width="120" height="240" as="geometry" />
        </mxCell>
        <mxCell id="X8oTq-pb9E9ul9ol5JQp-46" value="" style="ellipse;whiteSpace=wrap;html=1;aspect=fixed;fillColor=#D62828;strokeColor=#000000;shadow=1;" parent="1" vertex="1">
          <mxGeometry x="800" y="440" width="40" height="40" as="geometry" />
        </mxCell>
        <mxCell id="X8oTq-pb9E9ul9ol5JQp-50" value="" style="rounded=1;whiteSpace=wrap;html=1;fillColor=#00A896;strokeColor=#000000;shadow=1;" parent="1" vertex="1">
          <mxGeometry x="540" y="425" width="100" height="70" as="geometry" />
        </mxCell>
        <mxCell id="X8oTq-pb9E9ul9ol5JQp-51" value="" style="ellipse;whiteSpace=wrap;html=1;aspect=fixed;strokeColor=#000000;fillColor=none;shadow=1;" parent="1" vertex="1">
          <mxGeometry x="560" y="435" width="20" height="20" as="geometry" />
        </mxCell>
        <mxCell id="X8oTq-pb9E9ul9ol5JQp-52" value="" style="ellipse;whiteSpace=wrap;html=1;aspect=fixed;fillColor=#1E90FF;strokeColor=#000000;shadow=1;" parent="1" vertex="1">
          <mxGeometry x="360" y="440" width="40" height="40" as="geometry" />
        </mxCell>
        <mxCell id="X8oTq-pb9E9ul9ol5JQp-53" value="" style="ellipse;whiteSpace=wrap;html=1;aspect=fixed;fillColor=#D62828;strokeColor=#000000;shadow=1;" parent="1" vertex="1">
          <mxGeometry x="880" y="440" width="40" height="40" as="geometry" />
        </mxCell>
        <mxCell id="X8oTq-pb9E9ul9ol5JQp-54" value="" style="ellipse;whiteSpace=wrap;html=1;aspect=fixed;fillColor=#1E90FF;strokeColor=#000000;shadow=1;" parent="1" vertex="1">
          <mxGeometry x="960" y="440" width="40" height="40" as="geometry" />
        </mxCell>
        <mxCell id="X8oTq-pb9E9ul9ol5JQp-55" value="" style="rounded=1;whiteSpace=wrap;html=1;fillColor=none;strokeColor=#000000;shadow=1;" parent="1" vertex="1">
          <mxGeometry x="560" y="465" width="20" height="20" as="geometry" />
        </mxCell>
        <mxCell id="X8oTq-pb9E9ul9ol5JQp-56" value="" style="verticalLabelPosition=bottom;verticalAlign=top;html=1;shape=mxgraph.basic.tick;fillColor=#606C38;strokeColor=#000000;shadow=1;" parent="1" vertex="1">
          <mxGeometry x="600" y="435" width="20" height="20" as="geometry" />
        </mxCell>
        <mxCell id="X8oTq-pb9E9ul9ol5JQp-58" value="" style="verticalLabelPosition=bottom;verticalAlign=top;html=1;shape=mxgraph.basic.x;fillColor=#D62828;strokeColor=#000000;shadow=1;" parent="1" vertex="1">
          <mxGeometry x="600" y="465" width="20" height="20" as="geometry" />
        </mxCell>
        <mxCell id="X8oTq-pb9E9ul9ol5JQp-63" value="" style="shape=flexArrow;endArrow=classic;html=1;rounded=0;width=1.894736842105263;endSize=2.5978947368421053;endWidth=3.56786703601108;entryX=0.33;entryY=0.5;entryDx=0;entryDy=0;entryPerimeter=0;strokeColor=#000000;fillColor=#000000;shadow=1;" parent="1" edge="1">
          <mxGeometry width="50" height="50" relative="1" as="geometry">
            <mxPoint x="583.4" y="474.94000000000005" as="sourcePoint" />
            <mxPoint x="599.9999999999999" y="474.94000000000005" as="targetPoint" />
          </mxGeometry>
        </mxCell>
        <mxCell id="X8oTq-pb9E9ul9ol5JQp-64" value="" style="shape=flexArrow;endArrow=classic;html=1;rounded=0;width=1.894736842105263;endSize=2.5978947368421053;endWidth=3.56786703601108;entryX=0.33;entryY=0.5;entryDx=0;entryDy=0;entryPerimeter=0;strokeColor=#000000;fillColor=#000000;shadow=1;" parent="1" edge="1">
          <mxGeometry width="50" height="50" relative="1" as="geometry">
            <mxPoint x="583.4" y="444.94000000000005" as="sourcePoint" />
            <mxPoint x="599.9999999999999" y="444.94000000000005" as="targetPoint" />
          </mxGeometry>
        </mxCell>
        <mxCell id="X8oTq-pb9E9ul9ol5JQp-66" value="filter" style="text;html=1;align=center;verticalAlign=middle;whiteSpace=wrap;rounded=0;fontFamily=Fira Mono;fontColor=#000000;shadow=1;" parent="1" vertex="1">
          <mxGeometry x="540" y="400" width="100" height="25" as="geometry" />
        </mxCell>
      </root>
    </mxGraphModel>
  </diagram>
</mxfile>
